<svg xmlns="http://www.w3.org/2000/svg" viewBox="0 0 113.39 56.69"><defs><style>.cls-1,.cls-2,.cls-3,.cls-4,.cls-5,.cls-6{fill:none;}.cls-1,.cls-2,.cls-3,.cls-4,.cls-5{stroke:#1d1d1b;}.cls-1,.cls-2,.cls-5,.cls-6{stroke-miterlimit:10;}.cls-1,.cls-3{stroke-width:0.25px;}.cls-2{stroke-width:0.15px;}.cls-3,.cls-4{stroke-linejoin:round;}.cls-4{stroke-linecap:round;}.cls-4,.cls-5{stroke-width:0.17px;}.cls-6{stroke:#1e1e1c;stroke-width:0.75px;}</style></defs><g id="Layer_7" data-name="Layer 7"><line class="cls-1" x1="107.78" y1="50.59" x2="105.72" y2="50.39"/><line class="cls-1" x1="102.59" y1="50.1" x2="101.46" y2="49.99"/><line class="cls-1" x1="104.51" y1="50.28" x2="103.26" y2="50.16"/><line class="cls-1" x1="110.86" y1="50.88" x2="109" y2="50.7"/><line class="cls-2" x1="107.78" y1="50.59" x2="105.72" y2="50.39"/><path class="cls-1" d="M110.63,51.64a.25.25,0,0,1,.18,0l.06,0v-.81l-.51-.71a1.1,1.1,0,0,1-.4-.05,4.3,4.3,0,0,1-.39-.19,2.16,2.16,0,0,0-.25-.1s-.11,0-.12,0a.21.21,0,0,1,0-.19.17.17,0,0,1,0-.07c0-.09.31-.19.63-.13l-.69-1-.7.14a.64.64,0,0,1-.14.22.61.61,0,0,1-.2.15.57.57,0,0,1-.24.07.53.53,0,0,1-.43-.23l-.84.17a1,1,0,0,1-.66.51c-.31.06-.5-.16-.67-.24h0l-.74.15a.84.84,0,0,1-.47.34c-.08,0-.34.08-.45-.09a.09.09,0,0,1,0-.06l-2.05.42v2.22a.36.36,0,0,1,.38.13.54.54,0,0,1,.12.38.37.37,0,0,0,0,.16.06.06,0,0,1,0,0l1.84.21s0-.08.1-.14a.66.66,0,0,1,.42-.14.22.22,0,0,1,.14,0,.25.25,0,0,1,.1.12c0,.1,0,.2.07.22h0l.6.07,2.31.27a.08.08,0,0,1,0,0,.5.5,0,0,1,.17-.4.51.51,0,0,1,.38-.12,1.34,1.34,0,0,1,.31.09,3.26,3.26,0,0,1,.38.18.81.81,0,0,1,.26.18s.17.2.17.29l1.64.2V52.63a.34.34,0,0,1-.24,0l-.11-.08-.1-.1a.64.64,0,0,1,0-.66A.61.61,0,0,1,110.63,51.64Zm-8.81-.18,0-.06c-.07-.21.13-.31.22-.11S102,51.64,101.82,51.46Zm1.46-1.38a.13.13,0,0,1,0,.08.37.37,0,0,1-.06.1l-.08.15a.24.24,0,0,1-.36,0,.36.36,0,0,1-.09-.13,1.6,1.6,0,0,1-.08-.2s0,0,0-.06.21-.11.47-.11c.11,0,.19,0,.22.06A.1.1,0,0,1,103.28,50.08Zm.84,1.8s-.05,0-.07,0a.36.36,0,0,1-.38-.11c-.16-.2-.07-.59.07-.64s.21.12.26.19a.86.86,0,0,1,.17.45A.3.3,0,0,1,104.12,51.88Zm1.16.87a.25.25,0,0,1,0,.07s0,0,0,0a.18.18,0,0,1-.13,0,.25.25,0,0,1-.08-.05c-.09-.08-.09-.24-.09-.37a.17.17,0,0,1,0-.12.09.09,0,0,1,.07,0c.1,0,.2.1.21.12a.41.41,0,0,1,.09.26A.39.39,0,0,1,105.28,52.75Zm.33-2.15c-.13.16-.19.24-.31.28a.35.35,0,0,1-.38,0l-.12-.16c-.09-.09-.14-.06-.21-.13a.32.32,0,0,1-.09-.24.05.05,0,0,1,0,0c.06-.14.32-.18.39-.2s.17,0,.47,0a.37.37,0,0,1,.21,0,.34.34,0,0,1,.14.22S105.73,50.45,105.61,50.6ZM107,52.06a.93.93,0,0,1-.12.27c-.1.19-.22.32-.42.25a.37.37,0,0,1-.28-.34.31.31,0,0,1,.18-.33c.12,0,.57-.09.64.05A.34.34,0,0,1,107,52.06Zm.46-2.18s-.06,0-.11,0l-.42,0c-.17,0-.16-.23-.05-.32a.71.71,0,0,1,.47-.08l.05,0s0,0,0,.06a1.55,1.55,0,0,1,0,.21A.28.28,0,0,1,107.43,49.88Zm.66,1a.27.27,0,0,1-.21-.07.33.33,0,0,1-.1-.24h0s0-.09.15-.21.14-.27.26-.29.34-.2.45,0,.08.26.12.31.17.1.22.19a.3.3,0,0,1,0,.16c0,.07,0,.14,0,.18s-.36.14-.44.14S108.38,51,108.09,50.9Zm1.49,1.67a.15.15,0,0,1-.11,0,1,1,0,0,1-.33-.07c-.24-.08-.43-.19-.43-.51a.54.54,0,0,1,.25-.54.3.3,0,0,1,.42.13C109.48,51.76,109.7,52.41,109.58,52.57Z"/><path class="cls-3" d="M25.64,9.81a17.21,17.21,0,0,1-2.17.16,17.5,17.5,0,0,1-2.56-.18.51.51,0,0,0-.43-.47.48.48,0,0,0-.45.23c-.19-.05-2.5-.73-2.94-2.21a5.25,5.25,0,0,1-.16-1.21,6.08,6.08,0,0,1,.18-1.58c-.07.62.36,1,.84,1.48a4,4,0,0,0,2.8,1.06.39.39,0,0,1,.5-.25.35.35,0,0,1,.16.36l2.06.14h1.85l.08.12.3.83a.47.47,0,0,0-.34.49.48.48,0,0,0,.39.42Z"/><path class="cls-3" d="M23.47,4.71H26.2a.21.21,0,0,1,.18-.18.21.21,0,0,1,.23.18h3.24c.07.36.13.72.2,1.08a.26.26,0,0,0-.17.26.25.25,0,0,0,.17.23c-.07.35-.13.71-.2,1.06h-.71a.28.28,0,0,0-.27-.17.27.27,0,0,0-.24.17l-2.05.13a.51.51,0,0,0-.32-.21.5.5,0,0,0-.4.14l-.54-.06"/><path class="cls-3" d="M25.24,7.24l.08.1H23.47l-2-.14a.37.37,0,0,1-.34.27.37.37,0,0,1-.34-.38A4.29,4.29,0,0,1,18,6c-.36-.32-.86-.79-.86-1.32,0-1,1.82-2,4.51-2.43a.28.28,0,0,0,.34.25.29.29,0,0,0,.12-.33,12.29,12.29,0,0,1,5.64.55.18.18,0,0,0,0,.24A.19.19,0,0,0,28,2.93a6.52,6.52,0,0,1,.88.71,8.15,8.15,0,0,1,1,1.07H26.61a.24.24,0,0,1-.08.24c-.08,0-.24,0-.32-.24H23.47l.64.92A.28.28,0,0,0,24,6a.27.27,0,0,0,.4,0Z"/><path class="cls-4" d="M27.22,6.2a.13.13,0,0,1,0,.13.15.15,0,0,1-.12.08.11.11,0,0,1-.09,0,.16.16,0,0,1-.14,0,.17.17,0,0,1,0-.12s0,0,.08-.07,0-.08.08-.09.13,0,.18,0S27.21,6.17,27.22,6.2Z"/><path class="cls-4" d="M29.48,5.6a.13.13,0,0,1,0,.13.15.15,0,0,1-.12.08.11.11,0,0,1-.09,0,.16.16,0,0,1-.14-.05.17.17,0,0,1,0-.12s0,0,.08-.07.05-.08.08-.09.13,0,.17,0S29.47,5.57,29.48,5.6Z"/><path class="cls-4" d="M26,5.76c0,.07-.12.19-.22.19s-.05,0-.17-.07a2,2,0,0,1-.2-.07s-.17-.08-.18-.2a.26.26,0,0,1,.19-.24c.1,0,.14,0,.27,0s.15-.07.22,0S26.08,5.6,26,5.76Z"/><path class="cls-4" d="M29.26,6.69c0,.07-.12.18-.22.19s-.05,0-.17-.08-.13,0-.2-.06a.28.28,0,0,1-.18-.21.26.26,0,0,1,.19-.23c.1,0,.14,0,.27,0s.15-.07.22-.06S29.33,6.53,29.26,6.69Z"/><path class="cls-4" d="M28.58,5.63a.34.34,0,0,1,0,.15c0,.14-.29.12-.36.12s-.13-.06-.37-.1a.25.25,0,0,1-.17-.06.26.26,0,0,1-.09-.2h0a.41.41,0,0,1,.13-.17c.12-.11.12-.23.22-.24s.27-.17.36,0,.07.21.11.26.13.08.18.15A.29.29,0,0,1,28.58,5.63Z"/><path class="cls-4" d="M24.76,3.69a.15.15,0,0,1,0,.13.17.17,0,0,1-.12.08.12.12,0,0,1-.09,0c-.05,0-.11,0-.14-.05a.11.11,0,0,1,0-.11s0,0,.08-.08,0-.08.07-.09.14,0,.18.06Z"/><path class="cls-4" d="M27,3.09a.15.15,0,0,1,0,.13.19.19,0,0,1-.12.08.12.12,0,0,1-.09,0c-.05,0-.11,0-.14-.05a.11.11,0,0,1,0-.11s0,0,.08-.08,0-.08.07-.09S26.94,3,27,3Z"/><path class="cls-5" d="M23.55,3.25c0,.08-.11.19-.21.19s-.06,0-.18-.07-.13,0-.19-.06-.18-.09-.18-.21A.26.26,0,0,1,23,2.86c.09,0,.13.05.27,0s.15-.07.21,0S23.62,3.09,23.55,3.25Z"/><path class="cls-4" d="M26.8,4.18c0,.07-.11.19-.21.19s-.06,0-.18-.07-.13,0-.19-.07S26.05,4.15,26,4a.25.25,0,0,1,.19-.24c.1,0,.13,0,.27,0s.15-.07.21-.05S26.87,4,26.8,4.18Z"/><path class="cls-4" d="M26.13,3.12a.54.54,0,0,1,0,.15c-.05.14-.3.12-.36.12s-.14-.06-.38-.1a.29.29,0,0,1-.17-.06.31.31,0,0,1-.08-.2h0s0-.07.13-.17.11-.23.21-.24.28-.17.37,0,.07.22.1.26.14.08.18.16S26.13,3.07,26.13,3.12Z"/><path class="cls-4" d="M21.22,6.15a.13.13,0,0,1,0,.13.19.19,0,0,1-.11.08H21a.17.17,0,0,1-.14,0,.11.11,0,0,1,0-.12s0,0,.08-.07,0-.08.07-.1a.2.2,0,0,1,.18.06A.15.15,0,0,1,21.22,6.15Z"/><path class="cls-4" d="M23.48,5.55a.13.13,0,0,1,0,.13.19.19,0,0,1-.11.08h-.1a.17.17,0,0,1-.13,0,.11.11,0,0,1,0-.12s0,0,.08-.07,0-.08.07-.09a.17.17,0,0,1,.18,0A.15.15,0,0,1,23.48,5.55Z"/><path class="cls-4" d="M20,5.71c0,.07-.11.19-.21.19s-.06,0-.18-.07-.13,0-.2-.07a.28.28,0,0,1-.18-.21.25.25,0,0,1,.2-.23c.09,0,.13,0,.26,0s.16-.07.22-.06S20.08,5.55,20,5.71Z"/><path class="cls-4" d="M23.26,6.64a.31.31,0,0,1-.21.19c-.05,0-.06,0-.18-.08s-.13,0-.19-.06-.18-.08-.18-.21a.23.23,0,0,1,.19-.23c.09,0,.13,0,.26,0s.16-.07.22-.06S23.33,6.48,23.26,6.64Z"/><path class="cls-4" d="M22.59,5.58c0,.06,0,.11,0,.15s-.3.12-.37.12-.13-.06-.37-.1a.27.27,0,0,1-.17-.06.35.35,0,0,1-.08-.21h0s0-.07.12-.17.12-.23.22-.25.28-.16.37,0,.07.21.1.26.13.08.18.15A.46.46,0,0,1,22.59,5.58Z"/><path class="cls-4" d="M18,4.62a.16.16,0,0,1,0,.13.21.21,0,0,1-.12.08h-.09a.16.16,0,0,1-.14-.06.14.14,0,0,1,0-.11s0,0,.08-.08,0-.07.08-.09a.19.19,0,0,1,.17.06A.09.09,0,0,1,18,4.62Z"/><path class="cls-4" d="M21.41,3.09a.15.15,0,0,1,0,.13.17.17,0,0,1-.12.08.11.11,0,0,1-.09,0s-.11,0-.14-.05a.14.14,0,0,1,0-.11s0,0,.08-.08,0-.08.08-.09.13,0,.17.06A.1.1,0,0,1,21.41,3.09Z"/><path class="cls-4" d="M20.74,4.48a.31.31,0,0,1-.21.19c-.05,0-.06,0-.18-.08s-.13,0-.19-.06S20,4.45,20,4.32a.23.23,0,0,1,.19-.23c.09,0,.13,0,.26,0s.16-.07.22-.06S20.81,4.32,20.74,4.48Z"/><path class="cls-4" d="M19.43,3.86a.61.61,0,0,1,0,.15c-.05.13-.3.12-.36.12s-.14-.06-.38-.1A.39.39,0,0,1,18.5,4a.35.35,0,0,1-.08-.21h0s0-.07.13-.17.11-.23.21-.25.28-.17.37,0,.07.21.1.26.14.08.18.15S19.43,3.8,19.43,3.86Z"/><path class="cls-4" d="M24.69,8.44a.68.68,0,0,1,0,.15c-.05.13-.29.12-.36.11s-.13,0-.37-.09a.26.26,0,0,1-.17-.07.24.24,0,0,1-.09-.2h0a.36.36,0,0,1,.13-.18c.12-.11.11-.22.21-.24s.28-.17.37,0,.07.22.1.27.14.08.18.15S24.69,8.38,24.69,8.44Z"/><path class="cls-4" d="M24.34,9.12a.19.19,0,0,1,0,.13.21.21,0,0,1-.12.08h-.09A.2.2,0,0,1,24,9.29a.17.17,0,0,1,0-.12s0,0,.08-.07,0-.08.08-.1a.19.19,0,0,1,.17.06S24.32,9.09,24.34,9.12Z"/><path class="cls-4" d="M23.12,8.68a.31.31,0,0,1-.21.19c-.05,0-.06,0-.17-.08l-.2-.06a.28.28,0,0,1-.18-.21.24.24,0,0,1,.19-.23c.1,0,.14.05.27,0s.15-.07.22-.06S23.2,8.52,23.12,8.68Z"/><path class="cls-4" d="M17.64,7.36a.76.76,0,0,1,.07-.13c.09-.11.32,0,.38,0s.1.11.31.23a.28.28,0,0,1,.14.12.3.3,0,0,1,0,.22h0s0,.07-.18.12-.19.17-.29.14-.32.06-.36-.1,0-.22,0-.28-.1-.12-.12-.21A.3.3,0,0,1,17.64,7.36Z"/><path class="cls-4" d="M18.22,6.86a.14.14,0,0,1,.06-.12.2.2,0,0,1,.14,0l.09,0a.2.2,0,0,1,.11.11.1.1,0,0,1,0,.1s0,0-.1,0-.06,0-.1,0-.12-.06-.14-.11A.14.14,0,0,1,18.22,6.86Z"/><path class="cls-4" d="M19.18,7.71c.06,0,.18-.13.27-.09s0,0,.14.13.11.07.16.13a.32.32,0,0,1,.09.26.25.25,0,0,1-.27.14c-.09,0-.1-.09-.23-.13s-.17,0-.22,0S19.06,7.84,19.18,7.71Z"/><path class="cls-6" d="M42.69,53.5c0,.34-.29.51-.89.51A8.77,8.77,0,0,1,40.72,54l-7.6-.24L25.51,54a6.37,6.37,0,0,1-.9.06c-.8,0-1.19-.21-1.19-.63s.53-.69,1.61-.69q5.26-.06,5.27-1a3.27,3.27,0,0,0-.12-.47l-.49-1.59-.31-.83c-.36-1.24-1.23-4-2.63-8.21H14q-3.58,9.59-3.59,11a.92.92,0,0,0,.72,1q.18.06,3,.24c1.15,0,1.73.24,1.73.6s-.52.6-1.55.6q-2.76,0-6.41-.24Q7,53.71,6,53.71a8.6,8.6,0,0,0-1.85.2,3.76,3.76,0,0,1-.78.1q-.84,0-.84-.54t1.89-.6a5.84,5.84,0,0,0,2.72-.57,3.44,3.44,0,0,0,1.32-1.95Q16.15,28.24,21,14.84a7.27,7.27,0,0,1,.56-1.59l.26-1.09q.18-.66.48-.66t.3.36q.78,2.34,3.53,9.76,2.16,5.8,10.72,29.16a2.84,2.84,0,0,0,1.22,1.72,8.69,8.69,0,0,0,3.09.43C42.18,53,42.69,53.16,42.69,53.5ZM26.47,39.16q-1-2.69-3.23-8.92l-2.87-8.3q-2.53,6.63-6.07,17.22Z"/><path class="cls-6" d="M69.22,42.22A11.53,11.53,0,0,1,65.3,51a13.44,13.44,0,0,1-9.43,3.62,19.81,19.81,0,0,1-7.73-2,4.94,4.94,0,0,0-1.79-.54c-.48,0-.78.56-.9,1.66,0,.57-.3.86-.78.86s-.6-.24-.6-.72a3.2,3.2,0,0,1,.06-.72,52.09,52.09,0,0,0,.48-6.76q0-.6-.12-3.36a6,6,0,0,1-.06-.95q0-.9.72-.9c.4,0,.68.48.84,1.45q1.56,10.76,10.12,10.76a7.52,7.52,0,0,0,5.65-2.06,8,8,0,0,0,2-5.84,8.7,8.7,0,0,0-2-5.72,20.22,20.22,0,0,0-6.67-4.7q-5.68-2.82-7.9-5.45A9.76,9.76,0,0,1,45,23.12a11.2,11.2,0,0,1,3.2-8.21,11,11,0,0,1,8.12-3.23A17,17,0,0,1,62,13.06a6,6,0,0,0,1.86.48,1.16,1.16,0,0,0,.87-.24A3.13,3.13,0,0,0,65.09,12a.64.64,0,0,1,.66-.6c.39,0,.59.24.59.72a4.13,4.13,0,0,1,0,.72,28.45,28.45,0,0,0-.18,3.47,27.25,27.25,0,0,0,.29,4.55l.07,1q0,.66-.54.66T65,21.14a10.68,10.68,0,0,0-3.12-5.9,7.75,7.75,0,0,0-5.5-2.36,6.16,6.16,0,0,0-4.76,1.91A7.39,7.39,0,0,0,49.88,20a8,8,0,0,0,2.57,6.17,31.28,31.28,0,0,0,6.23,3.71q5.63,2.82,8.08,5.72A10,10,0,0,1,69.22,42.22Z"/><path class="cls-6" d="M106.28,23c0,.51-.24.77-.72.77s-.82-.51-1-1.55l-.24-2.16a10.37,10.37,0,0,0-1.37-3.65,5.9,5.9,0,0,0-4.13-2.52,13.43,13.43,0,0,0-3-.29c-1.87.05-3,.09-3.41.11V49.87q0,2.16,1.14,2.7a11,11,0,0,0,3.35.36q.72.06.72.51t-1,.51a5.17,5.17,0,0,1-.84-.06c-2.39-.08-4.09-.12-5.09-.12-1.31,0-2.55,0-3.71.09s-2.63.09-4.43.09q-1.38,0-1.38-.48t2.58-.6c1.23,0,2-.26,2.39-.78a5.93,5.93,0,0,0,.3-2.46V13.71c-3.95,0-6.41.24-7.36.6-2.52.92-4,3.38-4.43,7.37-.12,1.2-.4,1.79-.84,1.79s-.72-.41-.72-1.25q0-.66.06-1.32l.12-1.38c.12-1.83.3-4.25.54-7.24h2.69l12.22.18c1.43,0,3.67,0,6.7,0l9.94-.18c.08,2.23.34,5.55.78,9.94a2.15,2.15,0,0,0,.06.45A2.35,2.35,0,0,1,106.28,23Z"/></g></svg>