<svg xmlns="http://www.w3.org/2000/svg" viewBox="0 0 198.43 198.43"><defs><style>.cls-1{fill:#010101;}.cls-2{fill:#1d1d1b;}.cls-3{fill:#fff;}</style></defs><g id="Layer_6" data-name="Layer 6"><path class="cls-1" d="M10.8,102.23A2.22,2.22,0,1,1,13,100,2.22,2.22,0,0,1,10.8,102.23Zm0-3.44A1.22,1.22,0,1,0,12,100,1.22,1.22,0,0,0,10.8,98.79Z"/><path class="cls-1" d="M187.62,101.43a2.22,2.22,0,1,1,2.22-2.22A2.21,2.21,0,0,1,187.62,101.43Zm0-3.43a1.22,1.22,0,0,0,0,2.43,1.22,1.22,0,1,0,0-2.43Z"/><path class="cls-2" d="M27.7,56.05a3.79,3.79,0,0,1,2,2.69,5.28,5.28,0,0,1-.53,3.69,8,8,0,0,1-1.94,2.23,1.91,1.91,0,0,0-.48.5c-.08.16,0,.35.35.56a.27.27,0,0,1,.12.4c-.07.13-.17.16-.32.08l-.2-.13a16.13,16.13,0,0,0-2-1.24c-.12-.06-.46-.23-1-.49a1.87,1.87,0,0,1-.3-.14c-.18-.09-.23-.22-.15-.38s.26-.14.58,0c2.35.8,4,.26,5-1.62a2.91,2.91,0,0,0,.36-2.2,2.6,2.6,0,0,0-1.42-1.59,2.83,2.83,0,0,0-2.07-.26,7.4,7.4,0,0,0-2.57,1.45,9.28,9.28,0,0,1-3,1.73A3.13,3.13,0,0,1,17.73,61a3.64,3.64,0,0,1-1.93-2.36,4.28,4.28,0,0,1,.43-3.19,6.82,6.82,0,0,1,1.39-1.63,2.4,2.4,0,0,0,.47-.54.51.51,0,0,0,.08-.32,1.11,1.11,0,0,0-.32-.33.23.23,0,0,1-.06-.31c.07-.13.17-.16.32-.08l.21.13a7.63,7.63,0,0,0,1,.61,8.15,8.15,0,0,0,1.43.63l.3.13c.14.06.18.15.11.28s-.27.17-.57.08a3.58,3.58,0,0,0-2.33.09,3.05,3.05,0,0,0-1.67,1.44,2.27,2.27,0,0,0,1,3.28,2.58,2.58,0,0,0,2.31.13,11.37,11.37,0,0,0,2.2-1.46,9.65,9.65,0,0,1,3.13-1.75A3.28,3.28,0,0,1,27.7,56.05Z"/><path class="cls-2" d="M35.46,51.52c.1.06.1.17,0,.31l-.12.19a28.88,28.88,0,0,0-1.78,2.46c-.21.3-.41.61-.6.94-.1.16-.26.41-.49.74-.11.16-.22.2-.32.13s0-.25.18-.58c.33-.49.47-.82.44-1s-.33-.42-.88-.8L23,47.79c-.55-.38-.88-.57-1-.55s-.46.29-.9.88c-.18.23-.3.32-.37.27s-.08-.17,0-.31l1.73-2.5.76-1.06.47-.71c.13-.2.25-.26.35-.2s-.06.37-.41.93c-.2.32-.28.54-.24.67s.25.33.63.59L33,52a3.42,3.42,0,0,0,1.11.63c.21,0,.56-.4,1-1C35.27,51.48,35.37,51.45,35.46,51.52Z"/><path class="cls-2" d="M43.32,36.41c.08.08.08.16,0,.26l-.35.38c-.49.48-.67.84-.55,1.07a9,9,0,0,0,1.24,1.27l.47.44a6.83,6.83,0,0,1-2,4.58,7.9,7.9,0,0,1-5.23,2.78,6.83,6.83,0,0,1-5.25-2.06A7.42,7.42,0,0,1,29,40a7.13,7.13,0,0,1,2.13-5.32,8,8,0,0,1,2.7-1.82,2.3,2.3,0,0,0,.74-.47.56.56,0,0,0,0-.74q-.13-.29,0-.39c.08-.09.16-.1.24,0s.13.13.29.32c.52.59.9,1,1.15,1.23l1,.9.48.42c.22.24.28.43.17.55s-.22.08-.37,0a4.65,4.65,0,0,0-3.14-1.22,4,4,0,0,0-2.87,1.41,4.28,4.28,0,0,0-1.1,4,8.79,8.79,0,0,0,2.89,4.52,8.29,8.29,0,0,0,4.61,2.42,4.35,4.35,0,0,0,3.88-1.46,2.83,2.83,0,0,0,1-2.43,3.16,3.16,0,0,0-1-1.4c-.5-.46-.84-.68-1-.66s-.56.34-1.11,1a1.43,1.43,0,0,1-.3.27.14.14,0,0,1-.16,0c-.11-.1,0-.28.17-.51l.28-.3c.16-.15.69-.73,1.61-1.73L42.49,37l.23-.25.17-.18C43.09,36.4,43.23,36.33,43.32,36.41Z"/><path class="cls-2" d="M59.16,22.18a6.59,6.59,0,0,1,.68,6.22,8.89,8.89,0,0,1-3.76,4.12l-.67.42L53.69,34l-.95.6-1.49.93-.28.18c-.24.15-.39.17-.47.06s.11-.29.51-.54.78-.61.8-.87a2.08,2.08,0,0,0-.34-.7l-5.89-9.34c-.35-.56-.61-.86-.76-.89s-.51.12-1.06.47c-.29.18-.47.21-.55.08s0-.2.23-.34l.41-.26.85-.53,2-1.28A21.77,21.77,0,0,1,51.8,19a6,6,0,0,1,4.07.31A7.2,7.2,0,0,1,59.16,22.18ZM57,23.45Q55.19,20.56,53.11,20a5.84,5.84,0,0,0-4.68,1.07c-.84.53-1.3.93-1.37,1.2s.11.43.41.91l5.83,9.24a3.41,3.41,0,0,0,.4.57.33.33,0,0,0,.27.07,6.34,6.34,0,0,0,2-1,5,5,0,0,0,2.45-3.39C58.75,27.19,58.26,25.45,57,23.45Z"/><path class="cls-2" d="M74.58,20l.33,1c.2.59.4,1.14.6,1.66l.25.63c-1.39.45-4.08,1.47-8.09,3.05l-1.43.56-1,.38-.21.08q-.39.16-.45,0c0-.06,0-.12.08-.16l.76-.37c.35-.16.54-.32.58-.46a2.28,2.28,0,0,0-.24-.95L61.57,14.63c-.15-.37-.29-.57-.44-.59a3.4,3.4,0,0,0-1.17.34q-.33.12-.39,0c0-.11.08-.23.39-.35l3.54-1.39,2.35-.92,2.9-1.15A8.26,8.26,0,0,0,69.86,10q.38.8,1.08,2.19l.41.79a1,1,0,0,1,.12.23.18.18,0,0,1-.12.27c-.15.06-.32-.06-.52-.35a3.26,3.26,0,0,0-2.14-1.68,11,11,0,0,0-3.62,1l-1.7.67,2.2,5.6.5-.2a7.46,7.46,0,0,0,2.7-1.44c.26-.35.24-1.07,0-2.16-.08-.27-.06-.44.07-.49s.27,0,.36.26.21.57.35,1,.27.8.36,1c.54,1.36.93,2.28,1.17,2.77.06.13.11.23.14.32a.23.23,0,0,1-.13.34.21.21,0,0,1-.26-.09c-.07-.09-.27-.42-.59-1a1.64,1.64,0,0,0-1.56-1,10.09,10.09,0,0,0-2,.65l-.93.37,2.51,6.38a48.29,48.29,0,0,0,5.29-2.28c.83-.55,1-1.55.6-3q-.13-.48.09-.57C74.36,19.62,74.48,19.73,74.58,20Z"/><path class="cls-2" d="M87,9.84a.23.23,0,0,1-.21.31c-.17,0-.33-.11-.47-.44L86,9a3.3,3.3,0,0,0-.76-1.11,2.18,2.18,0,0,0-1.68-.53,5.05,5.05,0,0,0-1.11.12l-1.24.3,2.51,12.11c.1.48.3.75.61.81a4.07,4.07,0,0,0,1.24-.13q.27,0,.3.12c0,.11-.08.19-.31.24a2,2,0,0,1-.31,0c-.88.16-1.5.27-1.87.35s-.93.2-1.34.31-1,.23-1.61.36c-.34.07-.52.05-.54,0s.27-.26.9-.4c.45-.09.72-.24.82-.44a1.83,1.83,0,0,0-.07-.85l-2.49-12A12.2,12.2,0,0,0,76.45,9a2.69,2.69,0,0,0-1.1,2.81c0,.4,0,.63-.19.66s-.29-.09-.34-.37a3.11,3.11,0,0,1-.07-.44l-.06-.47c-.08-.63-.18-1.45-.3-2.47l1-.2,4.47-.86c.52-.1,1.34-.27,2.44-.51l3.61-.81c.19.74.51,1.83,1,3.27a.34.34,0,0,0,0,.14A.82.82,0,0,1,87,9.84Z"/><path class="cls-2" d="M111.4,20.15c0,.12-.16.17-.47.16l-.24,0-1.14-.05-1.26-.06-1.55-.08-1.2-.06h-.16c-.31,0-.46-.08-.46-.2s.23-.2.66-.18A2.49,2.49,0,0,0,107,19.5a3.76,3.76,0,0,0,.18-1.37l.52-10.61s-.1.25-.3.7c-.68,1.62-1.66,4.06-3,7.31l-1.19,3.21c-.24.63-.41.94-.5.94s-.2-.18-.31-.51C102,17.91,101,14.75,99.23,9.7l-.77-2.22c0,.26,0,.61-.06,1.06l-.32,6.65A35.66,35.66,0,0,0,98,19c.09.18.45.29,1.05.32s.74.1.73.24-.17.22-.48.2a4.08,4.08,0,0,1-.53-.06,4.27,4.27,0,0,0-.56-.07l-2.56-.05c-.27,0-.4-.08-.39-.2s.43-.19,1.28-.16c.35,0,.56,0,.63-.14A3.55,3.55,0,0,0,97.27,18l.48-9.81a17.9,17.9,0,0,0,0-1.84.59.59,0,0,0-.36-.41,5.58,5.58,0,0,0-1.24-.22c-.24,0-.35-.1-.35-.2s.23-.22.67-.2l.38,0,1.17.06,1.87.08,1.13,3.28c.3.83,1.13,3.27,2.5,7.3q.48-1.32,1-2.58l2.71-6.64c.17-.38.31-.7.44-1L111,6a2.77,2.77,0,0,1,.83.11.21.21,0,0,1,.1.19c0,.13-.14.2-.39.18a5.71,5.71,0,0,0-.85,0,1.14,1.14,0,0,0-.75.3,11.53,11.53,0,0,0-.23,2.39l-.47,9.53c0,.55,0,.88.14,1a3.42,3.42,0,0,0,1.43.25H111C111.26,20,111.41,20,111.4,20.15Z"/><path class="cls-2" d="M124.9,20.33c0,.05-.11.37-.29,1s-.33,1.16-.46,1.7l-.16.66q-2.1-.64-8.37-2.19l-1.49-.37-1-.24-.22-.06c-.27-.06-.39-.15-.37-.26s.07-.1.16-.09l.84.15c.38.06.62.05.73-.05a2.19,2.19,0,0,0,.35-.91l2.76-11.21c.1-.38.09-.63,0-.73a3.86,3.86,0,0,0-1.15-.4c-.23-.06-.34-.14-.31-.25s.2-.13.52,0l3.7.91,2.45.6,3,.75a9.94,9.94,0,0,0,1.21.21c-.12.58-.24,1.38-.39,2.41l-.12.88a1.66,1.66,0,0,1,0,.26q0,.21-.24.15c-.16,0-.23-.23-.22-.58A3.29,3.29,0,0,0,125,10a10.72,10.72,0,0,0-3.55-1.26l-1.78-.44-1.44,5.85.52.13a7.91,7.91,0,0,0,3,.39c.41-.14.81-.74,1.21-1.79.1-.27.21-.39.34-.36s.21.18.15.41-.16.59-.3,1-.25.8-.3,1c-.35,1.42-.57,2.4-.65,2.94,0,.13-.05.25-.07.34s-.14.24-.3.2a.2.2,0,0,1-.16-.22,10.16,10.16,0,0,1,.09-1.15,1.66,1.66,0,0,0-.7-1.71,10.43,10.43,0,0,0-2-.62l-1-.23-1.64,6.65a43.85,43.85,0,0,0,5.63,1.2c1,0,1.75-.66,2.24-2.11.11-.32.24-.46.4-.42S125,20.05,124.9,20.33Z"/><path class="cls-2" d="M141.58,23.44a6.57,6.57,0,0,1-4.83,4,8.88,8.88,0,0,1-5.5-.89l-.72-.33-1.85-.85-1-.47-1.6-.73-.3-.14q-.39-.18-.3-.36c.05-.11.29-.07.72.13s.94.32,1.16.19a1.81,1.81,0,0,0,.41-.67l4.59-10a2.28,2.28,0,0,0,.34-1.13c-.06-.15-.38-.36-1-.63-.31-.14-.43-.28-.37-.42s.18-.09.41,0l.45.21.91.42,2.17,1a21.81,21.81,0,0,1,4.95,2.83,6,6,0,0,1,2,3.58A7.19,7.19,0,0,1,141.58,23.44Zm-2.23-1.12q1.43-3.09.76-5.15a5.83,5.83,0,0,0-3.45-3.33,3.3,3.3,0,0,0-1.76-.49c-.12.05-.3.33-.53.84l-4.55,9.93a3.75,3.75,0,0,0-.26.65.34.34,0,0,0,.09.27,6.4,6.4,0,0,0,1.94,1.16,5.11,5.11,0,0,0,4.18.2C137.17,25.83,138.36,24.48,139.35,22.32Z"/><path class="cls-2" d="M160.07,37.46a7.19,7.19,0,0,1-4.84,2.67,6.48,6.48,0,0,1-5.1-1.53,6.89,6.89,0,0,1-2.59-5,7.2,7.2,0,0,1,1.77-5.38,7.13,7.13,0,0,1,4.91-2.72,7,7,0,0,1,5.26,1.76,6.55,6.55,0,0,1,2.45,4.82A7.43,7.43,0,0,1,160.07,37.46Zm-2-1.53a9.13,9.13,0,0,0,2.48-5.56,3.51,3.51,0,0,0-1.4-2.88,3.66,3.66,0,0,0-2.76-1q-2.57.26-5.25,3.45a9,9,0,0,0-2.33,4.74,4,4,0,0,0,1.54,3.67,3.51,3.51,0,0,0,3.55.73A9.57,9.57,0,0,0,158.09,35.93Z"/><path class="cls-2" d="M166.2,49.33a3.81,3.81,0,0,1-3.23.81,5.26,5.26,0,0,1-3.21-1.89,8.1,8.1,0,0,1-1.33-2.64,1.86,1.86,0,0,0-.29-.63c-.11-.14-.33-.1-.65.11a.28.28,0,0,1-.41,0,.21.21,0,0,1,0-.33.82.82,0,0,1,.2-.14,17.78,17.78,0,0,0,1.89-1.36c.1-.08.38-.34.84-.77a2.85,2.85,0,0,1,.24-.22c.16-.14.29-.13.41,0s0,.3-.18.56c-1.63,1.87-1.76,3.63-.4,5.25a3,3,0,0,0,1.9,1.16,2.62,2.62,0,0,0,2-.71,2.85,2.85,0,0,0,1-1.81,7.58,7.58,0,0,0-.37-2.94,9.12,9.12,0,0,1-.46-3.45,3.14,3.14,0,0,1,1.17-2.07,3.72,3.72,0,0,1,2.92-.89A4.3,4.3,0,0,1,171.12,39a6.79,6.79,0,0,1,1,1.9,2.84,2.84,0,0,0,.32.64c.11.12.2.19.27.19a1,1,0,0,0,.43-.16.22.22,0,0,1,.31,0,.21.21,0,0,1,0,.33.83.83,0,0,1-.21.14,10,10,0,0,0-1,.72,9.13,9.13,0,0,0-1.12,1.08l-.23.23a.19.19,0,0,1-.31,0c-.1-.13,0-.31.15-.56a3.56,3.56,0,0,0,.8-2.18,3,3,0,0,0-.7-2.09,2.26,2.26,0,0,0-3.43-.3,2.62,2.62,0,0,0-1,2.09,11.73,11.73,0,0,0,.52,2.59,9.62,9.62,0,0,1,.44,3.57A3.25,3.25,0,0,1,166.2,49.33Z"/><path class="cls-2" d="M179.53,58.24a.23.23,0,0,1-.36-.1c-.1-.15,0-.35.26-.6l.58-.45a3.33,3.33,0,0,0,.81-1.08,2.21,2.21,0,0,0-.06-1.76,4.57,4.57,0,0,0-.48-1l-.69-1.07L169,58.53q-.63.39-.57.84A4.58,4.58,0,0,0,169,60.5c.08.16.07.27,0,.32s-.21,0-.33-.21a2.41,2.41,0,0,1-.14-.28c-.44-.78-.75-1.33-.94-1.65s-.5-.81-.74-1.17-.53-.82-.88-1.39c-.17-.3-.21-.47-.12-.53s.33.18.67.72.47.6.69.63a2.09,2.09,0,0,0,.78-.34l10.52-6.32A11.88,11.88,0,0,0,176.87,48a2.68,2.68,0,0,0-3-.12c-.37.18-.6.19-.69.05s0-.3.23-.45a3,3,0,0,1,.4-.21l.43-.21,2.22-1.1.52.86,2.29,3.93c.26.47.69,1.18,1.28,2.14l2,3.14c-.64.42-1.56,1.09-2.76,2a.35.35,0,0,0-.12.1Z"/><path class="cls-2" d="M44.28,171c-.05.05-.11,0-.2,0l-.07-.06L42.9,170l-1.07-.92-.12-.1c-.12-.1-.16-.17-.12-.22s.14,0,.3.11c.34.25.55.33.61.26s0-1.73-.09-5l-2.15,2.51c-.17.21-.25.36-.22.47s.18.28.48.53a.12.12,0,0,1,0,.18s-.1,0-.19,0l-.17-.14-1.27-1.09-.28-.23-.33-.28-.08-.07c-.09-.08-.12-.15-.08-.2s.19,0,.42.2.37.24.48.19a3.89,3.89,0,0,0,.5-.53l4.14-4.86c.1-.13,0-.33-.35-.62-.15-.13-.2-.22-.14-.29s.12,0,.22.06l.11.11q.13.15.81.72c.48.41.79.67.93.77l.23.17c.11.09.13.17.08.24a.09.09,0,0,1-.11,0,3.28,3.28,0,0,1-.34-.25c-.18-.15-.31-.22-.38-.21s-.2.13-.38.35L42.54,164l1.41-.07a30.65,30.65,0,0,0,3.28-.25c.06-.08,0-.24-.34-.48s-.26-.25-.2-.32.1,0,.19,0l.89.75.51.43.36.33c0,.06.06.12,0,.16s-.15,0-.29-.07a3.24,3.24,0,0,0-.56-.45.65.65,0,0,0-.36-.06l-3.34.24h-.43l-.22,0c0,.07,0,.36,0,.87.09.94.13,2.38.14,4.32a4.37,4.37,0,0,0,.06.78,1.47,1.47,0,0,0,.37.47C44.25,170.86,44.32,171,44.28,171Z"/><path class="cls-2" d="M53.29,172.63a4.06,4.06,0,0,1-2.53,1.75,3.47,3.47,0,0,1-2.85-.55,3.92,3.92,0,0,1-1.38-1.75l-1.16.49a.2.2,0,0,1-.21,0c-.11-.07-.13-.14-.09-.21l.18-.08,1.17-.49a4,4,0,0,1,.65-3.62,4.05,4.05,0,0,1,2.55-1.75,3.66,3.66,0,0,1,2.92.63,3.74,3.74,0,0,1,1.33,1.64l1.17-.48a.16.16,0,0,1,.18,0c.1.07.13.14.08.2a.3.3,0,0,1-.15.08L54,169A4.2,4.2,0,0,1,53.29,172.63Zm-1.09-.79a6.52,6.52,0,0,0,1.09-2.58L47,171.88a2.34,2.34,0,0,0,1,1.79,2.14,2.14,0,0,0,2.64-.17A6.63,6.63,0,0,0,52.2,171.84Zm1.12-2.94a1.92,1.92,0,0,0-.89-1.7,2,2,0,0,0-1.87-.32A5.17,5.17,0,0,0,48.15,169,6.15,6.15,0,0,0,47,171.51Z"/><path class="cls-2" d="M58.43,177.68a1.86,1.86,0,0,1-1.83.95,4.25,4.25,0,0,1-1.53-.47l-1.43-.81-1.28-.72c-.12-.07-.16-.13-.13-.19s.15,0,.37.1a.94.94,0,0,0,.49.18,1.09,1.09,0,0,0,.33-.42l3.06-5.39a1.81,1.81,0,0,0,.25-.53c0-.11-.16-.25-.46-.44s-.27-.19-.23-.26.14-.05.32,0l.13.07a.62.62,0,0,0,.19.15l2,1.17a3.7,3.7,0,0,1,1.48,1.32,1.49,1.49,0,0,1,0,1.55,1.58,1.58,0,0,1-1.17.81,3.29,3.29,0,0,1-1.81-.31l0,.06a3.75,3.75,0,0,1,1.27,1.23A1.81,1.81,0,0,1,58.43,177.68Zm-1-.74a1.63,1.63,0,0,0-.19-2.16,5.61,5.61,0,0,0-1.11-.76l-1.69,3c-.11.2-.15.32-.13.37a1.65,1.65,0,0,0,.55.4,1.77,1.77,0,0,0,1.41.22A2,2,0,0,0,57.39,176.94Zm1.59-3.5a1.68,1.68,0,0,0,.26-1.54,1.92,1.92,0,0,0-.82-.69c-.11-.07-.31-.16-.57-.29l-1.64,2.89.09.06.59.31a1.42,1.42,0,0,0,1.16.12A1.85,1.85,0,0,0,59,173.44Z"/><path class="cls-2" d="M65.18,181.14l-.25.5c-.16.31-.31.6-.44.89l-.16.34q-1-.56-4.22-2l-.76-.35-.5-.23-.11-.05c-.14-.07-.2-.13-.17-.18s0-.05.09,0l.43.17c.2.07.33.09.4,0a1.13,1.13,0,0,0,.29-.46l2.72-5.86c.1-.2.12-.34.08-.41a2.4,2.4,0,0,0-.57-.33c-.12,0-.17-.11-.14-.17s.12-.05.28,0l1.88.87,1.24.58,1.53.71a5.56,5.56,0,0,0,.62.24c-.12.3-.28.73-.47,1.28l-.17.47a.48.48,0,0,1,0,.14.1.1,0,0,1-.15.06c-.08,0-.1-.15,0-.34a1.84,1.84,0,0,0-.13-1.51,5.67,5.67,0,0,0-1.75-1l-.9-.41-1.42,3.06.26.12a3.85,3.85,0,0,0,1.58.51c.24,0,.52-.32.85-.85.08-.14.15-.2.22-.17s.09.12,0,.25-.15.3-.27.54-.22.41-.28.54c-.35.74-.57,1.26-.68,1.54a1.31,1.31,0,0,1-.07.19.12.12,0,0,1-.18.07.11.11,0,0,1-.07-.13,6,6,0,0,1,.18-.62.93.93,0,0,0-.18-1,5.73,5.73,0,0,0-1-.54l-.49-.23-1.62,3.49A27.28,27.28,0,0,0,63.48,182c.53.12,1-.19,1.43-.93.1-.17.19-.23.27-.19S65.25,181,65.18,181.14Z"/><path class="cls-2" d="M75,178.36c0,.07-.13.07-.32,0l-.25-.09-.2-.07c-.13,0-.21-.05-.24,0a1.18,1.18,0,0,0-.17.35l-2.23,6.2c-.14.39-.22.61-.25.67s-.07.08-.11.07a.26.26,0,0,1-.11-.17l-.73-2.55c-.41-1.48-.91-3.32-1.48-5.52l-2.18,6.05a.22.22,0,0,0,.11.24,5.83,5.83,0,0,0,.75.32c.1,0,.14.09.12.14s-.14.07-.33,0l-.64-.26-.35-.14-.21,0-.64-.21-.12,0c-.17-.06-.25-.13-.22-.19s.11-.07.26,0a2.32,2.32,0,0,0,.81.2c.08,0,.18-.16.27-.42l1.92-5.33c.21-.59.22-1,0-1.26a1.55,1.55,0,0,0-.61-.34c-.2-.07-.28-.14-.26-.22s.1-.08.21,0,.34.13.57.23l.37.16.32.1c.25.09.5.17.74.23l1.92,7,1.73-4.8a2.22,2.22,0,0,0,.13-.41.13.13,0,0,0-.05-.14,2.08,2.08,0,0,0-.53-.24c-.27-.09-.4-.17-.37-.24s.13-.08.31,0l.4.14.31.12.22.08.2.07.35.12.35.13C75,178.22,75,178.29,75,178.36Z"/><path class="cls-2" d="M81,187.89c0,.07-.1.08-.25,0l-1.6-.4-.48-.12-.46-.12q-.24-.06-.21-.15c0-.06.2,0,.57,0,.2,0,.32,0,.36,0a1.77,1.77,0,0,0,.18-.5l.81-3.24-3.52-.89-.8,3.14a1.21,1.21,0,0,0-.06.61c0,.08.21.16.52.27s.29.12.28.17-.11.08-.26,0l-.11,0-.59-.15-.37-.1-.49-.12-1-.25q-.22-.06-.21-.15c0-.06.1-.07.26-.05l.33.06a.46.46,0,0,0,.35,0,2,2,0,0,0,.19-.61L76,179.46a1.82,1.82,0,0,0,.09-.6c0-.07-.13-.13-.34-.19l-.42-.14a.08.08,0,0,1,0-.11c0-.07.07-.08.17-.06l.2.06c.19.07.65.19,1.38.37.4.11.67.17.83.2l.22,0c.14,0,.2.1.18.17s-.15.07-.4,0-.42-.07-.48,0a1,1,0,0,0-.21.51l-.65,2.57,3.52.89.61-2.4a1.38,1.38,0,0,0,.08-.72c0-.09-.25-.17-.63-.26q-.18,0-.15-.15c0-.06.09-.08.22,0l.06,0,.58.14.63.16,1,.25.32.08c.16,0,.24.09.22.16s-.2.06-.55,0l-.22,0a.19.19,0,0,0-.18.08,3,3,0,0,0-.16.52l-1.5,5.92a1.86,1.86,0,0,0-.1.63c.06.1.27.2.64.29C81,187.77,81,187.82,81,187.89Z"/><path class="cls-2" d="M89.52,189.26c0,.06-.07.08-.19.07l-.21-.05L87.61,189l-1.53-.19H85.9c-.16,0-.23-.08-.22-.16s.13-.11.35-.08c.7.1,1.06.09,1.08,0a.41.41,0,0,1,0-.09l-.06-.31,0-.17c0-.25-.13-.79-.29-1.64l-2.55-.39a12.46,12.46,0,0,0-1,2,.2.2,0,0,0,.12.22l.59.14c.23,0,.34.09.33.16s-.13.1-.33.07c-.37-.06-.79-.14-1.27-.25l-.37-.06a1.62,1.62,0,0,0-.38,0h-.16c-.11,0-.16-.06-.15-.13s.15-.08.4,0a1.19,1.19,0,0,0,.56,0,.6.6,0,0,0,.32-.33q2.17-3.94,3.54-6.33a1.1,1.1,0,0,1,.15-.28l.09-.2c0-.08.07-.12.11-.11s0,0,0,.07c.06.32.2,1,.42,2q.25,1.17,1.28,5.85a.62.62,0,0,0,.2.37,1.76,1.76,0,0,0,.6.17C89.44,189.14,89.53,189.19,89.52,189.26ZM86.71,186c-.08-.36-.21-.95-.38-1.79L86,182.59c-.47.79-1,1.81-1.72,3.08Z"/><path class="cls-2" d="M97.83,181.94c0,.06-.08.09-.23.09a1.35,1.35,0,0,0-.73.1,1.57,1.57,0,0,0-.41.62l-.48,1c-1.16,2.51-2,4.44-2.48,5.8,0,.08-.07.13-.13.12s-.17-.29-.34-.88c-.29-1.07-.52-1.87-.69-2.41s-.43-1.49-.78-2.67l-.49-1.58a.85.85,0,0,0-.23-.44,1,1,0,0,0-.48-.16l-.47,0a.08.08,0,0,1-.07-.1c0-.07.08-.09.24-.08h.11l.75.07.77.07h.46l1.16.06h.16q.23,0,.21.12c0,.07-.15.11-.44.1l-.73,0c-.17,0-.26,0-.27.14a.84.84,0,0,0,0,.1l.07.31c0,.07.34,1.17,1,3.3.1.37.3,1.07.6,2.11q2.34-5.22,2.35-5.5c0-.17-.18-.26-.57-.28l-.38,0c-.09,0-.14,0-.13-.11s.12-.12.37-.1l.41,0,.49.07.38,0,.8,0C97.77,181.84,97.84,181.88,97.83,181.94Z"/><path class="cls-2" d="M105.11,181.77c0,.08-.1.12-.3.11h-.48c-.13,0-.21,0-.23.06a1.45,1.45,0,0,0,0,.39l.17,6.59c0,.41,0,.65,0,.71s0,.11-.07.11-.1,0-.17-.12l-1.59-2.11Q101,185.69,99,182.92l.17,6.42a.21.21,0,0,0,.18.19,6.6,6.6,0,0,0,.82,0c.11,0,.16,0,.16.09s-.1.11-.31.12l-.69,0H99l-.21,0c-.15,0-.38,0-.68,0H98c-.18,0-.27,0-.28-.09s.08-.11.24-.11a2.51,2.51,0,0,0,.83-.11c.07,0,.11-.22.1-.49l-.14-5.66c0-.64-.16-1-.44-1.19a1.49,1.49,0,0,0-.69-.09c-.21,0-.32,0-.32-.12s.06-.11.18-.11h1l.34,0c.27,0,.53,0,.77,0l4.32,5.8-.13-5.1a2.93,2.93,0,0,0,0-.43.17.17,0,0,0-.1-.12,2.52,2.52,0,0,0-.58,0c-.29,0-.44,0-.44-.09s.09-.12.29-.13h1.94C105,181.66,105.11,181.7,105.11,181.77Z"/><path class="cls-2" d="M113.56,186.39a2.19,2.19,0,0,1-.56,1.77,2.86,2.86,0,0,1-1.8.94,4.31,4.31,0,0,1-1.59-.17,1.06,1.06,0,0,0-.38-.06c-.09,0-.14.13-.13.34s0,.17-.14.19-.12,0-.13-.12a.37.37,0,0,1,0-.14,8.72,8.72,0,0,0-.08-1.3c0-.08,0-.29-.11-.63l0-.18c0-.12,0-.18.12-.19s.15.07.2.25c.39,1.33,1.16,1.92,2.3,1.77a1.52,1.52,0,0,0,1.08-.54,1.48,1.48,0,0,0,.25-1.16,1.59,1.59,0,0,0-.53-1,4.2,4.2,0,0,0-1.46-.71,5.29,5.29,0,0,1-1.72-.82,1.8,1.8,0,0,1-.6-1.18,2,2,0,0,1,.43-1.65,2.29,2.29,0,0,1,1.54-.83,3.78,3.78,0,0,1,1.16.11,1.26,1.26,0,0,0,.38.05c.09,0,.15,0,.17-.07a.6.6,0,0,0,0-.25.13.13,0,0,1,.12-.13c.08,0,.13,0,.14.12a.72.72,0,0,1,0,.13,4.32,4.32,0,0,0,0,.67,6,6,0,0,0,.17.85l0,.18c0,.09,0,.13-.09.14s-.16-.06-.22-.23a2,2,0,0,0-.77-1,1.6,1.6,0,0,0-1.16-.3,1.26,1.26,0,0,0-.9.49,1.33,1.33,0,0,0-.22,1,1.45,1.45,0,0,0,.67,1.1,6.48,6.48,0,0,0,1.34.54,5,5,0,0,1,1.76.87A1.82,1.82,0,0,1,113.56,186.39Z"/><path class="cls-2" d="M117.88,187.72c0,.07,0,.11-.13.13l-.11,0c-.06,0-.6.08-1.62.28a5.61,5.61,0,0,0-.59.13,4.59,4.59,0,0,1-.48.11c-.1,0-.16,0-.17-.07s.09-.12.29-.17a1,1,0,0,0,.54-.21,1.39,1.39,0,0,0,0-.67l-1.14-5.94a2.1,2.1,0,0,0-.18-.61q-.1-.09-.69,0c-.15,0-.24,0-.24,0s0-.1.12-.12l1.61-.31.7-.12.45-.1q.19,0,.21.06c0,.06-.16.12-.51.21-.19,0-.31.1-.34.17a1,1,0,0,0,0,.49l1.17,6c.08.43.14.66.19.68a1.41,1.41,0,0,0,.8,0C117.82,187.63,117.87,187.66,117.88,187.72Z"/><path class="cls-2" d="M125.43,181.78a3.73,3.73,0,0,1-.6,3.43,4.67,4.67,0,0,1-2.6,1.56l-.41.12-1.07.29-.58.15-.92.25-.18,0c-.14,0-.23,0-.25,0s.1-.13.35-.2.5-.2.55-.33a1.38,1.38,0,0,0-.07-.43l-1.62-6c-.1-.36-.18-.56-.26-.6s-.28,0-.62.07c-.18,0-.28,0-.3-.05s0-.11.17-.14l.26-.07.52-.14,1.25-.34a11.26,11.26,0,0,1,3-.53,3.23,3.23,0,0,1,2.07.85A4.15,4.15,0,0,1,125.43,181.78Zm-1.31.31a4.17,4.17,0,0,0-1.5-2.5,3.09,3.09,0,0,0-2.6-.21c-.52.14-.82.27-.9.41a1.24,1.24,0,0,0,.08.55l1.6,5.91c.06.2.1.33.12.37a.17.17,0,0,0,.13.08,3.35,3.35,0,0,0,1.21-.18,2.73,2.73,0,0,0,1.8-1.4A4.21,4.21,0,0,0,124.12,182.09Z"/><path class="cls-2" d="M133.1,181.2s.07.21.18.54.21.63.32.93l.13.35c-.75.24-2.22.76-4.41,1.58l-.78.29-.52.2-.11,0c-.15.05-.23.05-.25,0s0-.07,0-.1l.42-.19c.19-.09.3-.17.31-.25a1.22,1.22,0,0,0-.12-.53L126,178c-.08-.21-.16-.32-.24-.34a2,2,0,0,0-.64.17c-.12,0-.19,0-.21,0s0-.12.21-.19l1.94-.72,1.28-.48,1.58-.59a5,5,0,0,0,.61-.28c.13.3.32.72.58,1.24l.22.45a.81.81,0,0,1,.06.13.1.1,0,0,1-.06.15c-.08,0-.18,0-.28-.2a1.85,1.85,0,0,0-1.17-1,5.72,5.72,0,0,0-2,.51l-.93.35,1.18,3.16.28-.1a4.06,4.06,0,0,0,1.47-.76c.14-.2.13-.6,0-1.21,0-.16,0-.25,0-.27s.15,0,.2.14.11.33.19.58.14.45.19.58c.29.77.5,1.29.63,1.57a.83.83,0,0,1,.07.18c0,.09,0,.15-.07.18a.12.12,0,0,1-.14-.05,5.79,5.79,0,0,1-.32-.56.93.93,0,0,0-.84-.58,5.87,5.87,0,0,0-1.09.33l-.5.19,1.35,3.6a24.73,24.73,0,0,0,2.88-1.19c.46-.29.57-.85.34-1.67-.05-.18,0-.29,0-.32S133.05,181.05,133.1,181.2Z"/><path class="cls-2" d="M138,172.24c0,.07,0,.15-.22.23l-.24.11-.2.09c-.12.06-.18.11-.18.16a1.19,1.19,0,0,0,.13.36l2.86,5.95c.17.37.27.58.29.65s0,.1,0,.12-.11,0-.21,0l-2.32-1.27q-2-1.11-5-2.82l2.78,5.8a.22.22,0,0,0,.25.09,7,7,0,0,0,.76-.31c.09,0,.15,0,.18,0s-.05.14-.24.23-.27.12-.63.27l-.34.15-.18.11a6.05,6.05,0,0,1-.61.32l-.11,0c-.17.08-.26.09-.29,0s0-.13.17-.2a2.82,2.82,0,0,0,.71-.43c.05-.08,0-.24-.11-.49l-2.45-5.11c-.27-.57-.57-.87-.88-.9a1.49,1.49,0,0,0-.67.19c-.19.1-.3.1-.34,0s0-.12.12-.17.33-.16.56-.25l.37-.15.3-.16a6.23,6.23,0,0,0,.68-.36l6.32,3.52-2.21-4.6a3.21,3.21,0,0,0-.2-.38.14.14,0,0,0-.13-.07,2.18,2.18,0,0,0-.54.22c-.27.12-.41.16-.44.09s0-.14.21-.23l.38-.18.31-.14.2-.1.2-.1.33-.15.33-.17C137.88,172.18,138,172.17,138,172.24Z"/><path class="cls-2" d="M147.92,172.88l.07.17c.1.23.38.79.83,1.68l.06.13c-.72.4-1.53.89-2.44,1.45-.48.3-.93.6-1.34.88a5.25,5.25,0,0,0-.54.37c-.19.11-.3.14-.34.07a2.2,2.2,0,0,1,.23-.82,15.65,15.65,0,0,0,.81-2.75,4.42,4.42,0,0,0-.64-3.14,2.71,2.71,0,0,0-1.36-1.22,1.36,1.36,0,0,0-1.17.19,1.48,1.48,0,0,0-.71.92.88.88,0,0,0,.06.69q.1.17.39,0c.49-.28.85-.23,1.09.15s.13.65-.26.9a1,1,0,0,1-.75.16,1,1,0,0,1-.61-.48,1.68,1.68,0,0,1-.18-1.49,2.47,2.47,0,0,1,1.13-1.31,2.39,2.39,0,0,1,3.43.8,3.56,3.56,0,0,1,.48,2.46,11.68,11.68,0,0,1-1.31,3.58c.44-.3,1-.66,1.69-1.09s.92-.58,1.06-.69a1.22,1.22,0,0,0,.32-.37c.06-.12,0-.39-.16-.81s-.13-.46,0-.52S147.86,172.78,147.92,172.88Z"/><path class="cls-2" d="M152.35,167.58a5.74,5.74,0,0,1,.89,1.74,3.87,3.87,0,0,1,.15,1.69,2,2,0,0,1-.86,1.38,2.45,2.45,0,0,1-2.36.28,5.08,5.08,0,0,1-2.43-1.93,4.69,4.69,0,0,1-1.05-3.36,2.24,2.24,0,0,1,.93-1.59,2.17,2.17,0,0,1,2.12-.29A5.51,5.51,0,0,1,152.35,167.58Zm-1.29.44a8.61,8.61,0,0,0-2-2,1.1,1.1,0,0,0-1.36,0q-1.23.9,1,4c1.59,2.17,2.82,2.93,3.68,2.3.41-.3.46-.82.18-1.58A11.9,11.9,0,0,0,151.06,168Z"/><path class="cls-2" d="M158.39,164.67l.1.15c.13.22.49.74,1.07,1.55l.08.11c-.65.51-1.38,1.11-2.19,1.81-.43.37-.83.72-1.2,1.06l-.48.45c-.16.14-.27.18-.32.12a2.12,2.12,0,0,1,.1-.84,15.26,15.26,0,0,0,.39-2.85,4.43,4.43,0,0,0-1.11-3,2.66,2.66,0,0,0-1.52-1,1.38,1.38,0,0,0-1.13.36,1.47,1.47,0,0,0-.56,1,.89.89,0,0,0,.16.68c.09.1.22.08.38-.06.45-.35.81-.35,1.1,0s.24.63-.12.94a1,1,0,0,1-.71.26,1,1,0,0,1-.67-.37,1.71,1.71,0,0,1-.42-1.45,2.63,2.63,0,0,1,.92-1.47,2.4,2.4,0,0,1,3.52.28,3.57,3.57,0,0,1,.85,2.36,12.1,12.1,0,0,1-.76,3.73q.58-.54,1.5-1.32c.51-.44.83-.72.95-.85a1.17,1.17,0,0,0,.26-.42c0-.12-.05-.38-.28-.77s-.19-.44-.11-.5S158.31,164.58,158.39,164.67Z"/><path class="cls-2" d="M163.13,160l.11.15c.15.21.54.7,1.18,1.46l.09.11c-.61.56-1.3,1.21-2,2-.41.41-.78.79-1.12,1.16a4.83,4.83,0,0,0-.44.48c-.15.15-.26.2-.31.15s0-.33,0-.85a15.53,15.53,0,0,0,.17-2.87,4.34,4.34,0,0,0-1.33-2.91,2.57,2.57,0,0,0-1.6-.88,1.33,1.33,0,0,0-1.09.44,1.44,1.44,0,0,0-.49,1,.89.89,0,0,0,.22.66c.09.09.22.06.38-.08.41-.39.77-.42,1.09-.11a.6.6,0,0,1,0,1,1,1,0,0,1-.69.31,1,1,0,0,1-.7-.32,1.69,1.69,0,0,1-.52-1.41,2.51,2.51,0,0,1,.81-1.54,2.44,2.44,0,0,1,1.64-.76,2.41,2.41,0,0,1,1.88.78,3.61,3.61,0,0,1,1,2.29,12.15,12.15,0,0,1-.48,3.78c.36-.39.83-.87,1.4-1.44s.77-.77.88-.91a1.24,1.24,0,0,0,.23-.44c0-.12-.08-.37-.34-.75s-.22-.42-.15-.49S163.05,159.92,163.13,160Z"/><path class="cls-2" d="M94.94,95.25C96.7,95,96.71,94.56,97,94a2.74,2.74,0,0,1,1.68-1.7A2.69,2.69,0,0,0,98,94.53c.08.71-.45.63.59,1.44a2.18,2.18,0,0,0-1.7-.58c-.89.13-1.19.8-1.8,1.87.1-1.2,1-1.37.67-1.74A1,1,0,0,0,94.94,95.25Z"/><path class="cls-2" d="M103,110.44c1-3.61,2.74-9.64,3.74-13.31,4-14.21,7.53-28.52,10.81-42.89a.37.37,0,0,1,.69-.09,105.37,105.37,0,0,1,6,15c2.33,7.74,6.92,14.56,10.57,21.69,3.34,7.34,5.44,15.26,8,22.87a.24.24,0,0,1-.06.23,23.67,23.67,0,0,1-6.48,4.07,39.72,39.72,0,0,1-7.26,2.36,57,57,0,0,1-15.19,1.21.17.17,0,0,1-.16-.18.18.18,0,0,1,.18-.16,54.07,54.07,0,0,0,15.06-1.33c4.85-1.17,9.79-2.92,13.56-6.28l-.06.22c-2.64-7.56-4.26-15.7-8.12-22.72-1.15-2-2.78-5-3.92-7-5.49-9.31-7.8-20.07-12.77-29.59l.7-.09c-1.15,4.78-2.36,9.55-3.59,14.31-3,11.14-6.59,24.57-9.75,35.56-.51,1.83-1.42,4.84-1.93,6.64Z"/><path class="cls-2" d="M102.24,111.1c.8-2.38,2.75-8.23,3.48-10.53,5-15.19,8.23-31,12-46.56l.21.24c-1.63.15-3.26.35-4.9.53s-3.25.6-4.89.76l.34-.33a42.42,42.42,0,0,1-3.14,11.56c-1.43,3.73-4.09,6.82-5.41,10.6-.71,1.84-1.2,3.76-1.73,5.68a34.68,34.68,0,0,1-5.07,10.84,25.84,25.84,0,0,0-2.9,5.1c-.06.19.43.48.23.42s-1-.46-.94-.66C91,95,94,92.16,95.59,88.45c1.82-3.56,2.41-7.54,3.85-11.25s4-6.84,5.42-10.61a46.39,46.39,0,0,0,2.82-11.47.37.37,0,0,1,.34-.33c3.3-.06,6.54-.63,9.83-.93a.2.2,0,0,1,.21.24c-3.45,14.4-6.76,28.83-10.68,43.11-.22.58-.21,1.22-.39,1.81-.35,1.19-1.28,4.11-1.66,5.31-.76,2.35-1.56,4.69-2.38,7-.16.44-.2.22-.71-.24Z"/><path class="cls-2" d="M114.55,58.26a1.62,1.62,0,0,0-1.64.38,1.71,1.71,0,0,1-.31.43.83.83,0,0,1-.34.25c-.33.1-.57-.23-.74-.12s0,.31-.18.54-.66.28-.65.32.54-.14.94.09.43.92.78,1c.18,0,.28-.15.38-.09s-.22,1.2-.11,1.25.78-.81.53-1.25c-.15-.26-.52-.2-.64-.48s0-.46.18-.72a3.09,3.09,0,0,1,1-1.09C114.29,58.38,114.57,58.33,114.55,58.26Z"/><path class="cls-2" d="M98.67,85.81a2.35,2.35,0,0,0,2.37-.54,2.8,2.8,0,0,1,.44-.62,1.16,1.16,0,0,1,.49-.36c.48-.14.82.33,1.08.17s0-.45.25-.77.94-.4.93-.47-.77.21-1.35-.13-.62-1.32-1.12-1.38c-.26,0-.4.22-.54.14-.34-.18.3-1.73.14-1.8s-1.11,1.16-.75,1.8c.21.37.74.28.91.69s0,.65-.25,1a4.6,4.6,0,0,1-1.48,1.57C99.05,85.65,98.65,85.71,98.67,85.81Z"/><path class="cls-2" d="M109.27,68.57a2.83,2.83,0,0,0-.3-.68,1.29,1.29,0,0,0-.54-.42,1.21,1.21,0,0,0-.72,0c-.3.07-.44.25-.49.21s.2-.53.3-.7a10.6,10.6,0,0,1,.7-.92,10.93,10.93,0,0,0,1.09-1.72l.1-.22c.26-.59.27-.86.33-.86a1.77,1.77,0,0,1,.09,1.61c-.13.31-.24.3-.91,1.16-.53.68-.58.84-.54,1,.1.31.57.23.84.65A1,1,0,0,1,109.27,68.57Z"/><path class="cls-2" d="M101.83,91.56a3.19,3.19,0,0,1,.75,0,1.21,1.21,0,0,1,.58.3.94.94,0,0,1,.3.56c0,.27-.07.44,0,.47s.42-.34.54-.48a9.39,9.39,0,0,0,.59-.86,10.06,10.06,0,0,1,1.21-1.45L106,90c.45-.4.7-.49.68-.54a1.92,1.92,0,0,0-1.54.45c-.23.21-.19.29-.74,1.12-.44.65-.57.75-.73.76-.32,0-.42-.38-.91-.46A1,1,0,0,0,101.83,91.56Z"/><path class="cls-2" d="M116.05,99.55a2.36,2.36,0,0,1-2.36-.55,2.82,2.82,0,0,0-.44-.61,1.29,1.29,0,0,0-.49-.37c-.48-.13-.82.33-1.08.18s0-.45-.25-.77-.94-.41-.94-.47.78.2,1.36-.13.62-1.32,1.12-1.38c.26,0,.4.21.54.14.34-.19-.3-1.74-.14-1.81s1.11,1.17.75,1.8c-.21.38-.74.29-.91.7s.05.65.25,1a4.5,4.5,0,0,0,1.48,1.58C115.68,99.38,116.08,99.44,116.05,99.55Z"/><path class="cls-2" d="M112.9,105.29a3.19,3.19,0,0,0-.75,0,1.31,1.31,0,0,0-.58.3,1,1,0,0,0-.3.57c0,.27.07.44,0,.47s-.42-.34-.54-.48a8.32,8.32,0,0,1-.59-.87,9.68,9.68,0,0,0-1.21-1.44l-.17-.16c-.45-.4-.7-.5-.68-.55a2,2,0,0,1,1.54.46c.23.2.19.29.74,1.11.44.66.57.76.72.77.33,0,.43-.39.92-.46A1.05,1.05,0,0,1,112.9,105.29Z"/><path class="cls-2" d="M113.21,112.13c-.08.13.57.53.48.87s-.6.25-.66.53.35.36.51.87a1.1,1.1,0,0,1-.07.94c-.27.38-.89.51-1.11.3l0-.07c-.21-.35,0-.72-.09-.83a.38.38,0,0,0-.48.15c-.13.26.36.5.36,1s-.24.69-.14.76.2,0,.28-.11a1,1,0,0,0,.25-.49c.15-.32.64-.38,1.09-.43a3.24,3.24,0,0,1,1.94.4c.44.22.5.36.52.45s-.08.29-.4.86-.27.55-.26.56.44-.58,1.05-.71c.78-.16,1.35.65,1.7.4s.14-.95.08-1,0,.4-.23.55-1-.28-1.1-.39a3,3,0,0,1-.82-1c-.44-.84-.21-1.21-.57-1.47s-1.18.16-1.46-.19c-.15-.18,0-.34,0-1,0-.35-.11-.79-.41-1C113.43,112.1,113.25,112.07,113.21,112.13Z"/><path class="cls-2" d="M131.51,97.52c.09-.13-.56-.52-.48-.86s.61-.25.67-.53-.35-.37-.52-.87a1.11,1.11,0,0,1,.08-.94c.26-.39.88-.52,1.1-.31a.35.35,0,0,1,0,.08c.21.34,0,.71.1.83a.38.38,0,0,0,.48-.15c.13-.26-.36-.51-.37-1.06,0-.39.24-.68.15-.75s-.2,0-.28.1a1.09,1.09,0,0,0-.25.49c-.15.33-.65.39-1.1.44a3.26,3.26,0,0,1-1.94-.4c-.43-.23-.5-.36-.51-.45s.08-.3.39-.86.27-.55.26-.57-.43.59-1.05.71c-.78.17-1.35-.64-1.69-.39s-.14,1-.09,1,0-.4.24-.54,1,.28,1.09.39a2.94,2.94,0,0,1,.83,1c.44.83.21,1.21.56,1.47s1.19-.16,1.47.19c.14.18,0,.33.05,1,0,.35.1.79.41,1C131.29,97.56,131.47,97.58,131.51,97.52Z"/><path class="cls-2" d="M128.67,110.11a2.33,2.33,0,0,1,2.36.54,2.62,2.62,0,0,0,.45.62,1.16,1.16,0,0,0,.49.36c.47.14.82-.33,1.07-.17s0,.45.25.77,1,.4.94.47-.78-.21-1.35.13-.63,1.32-1.13,1.38c-.26,0-.4-.22-.54-.14-.34.18.31,1.73.15,1.8s-1.11-1.16-.76-1.8c.21-.37.75-.28.92-.69s-.05-.65-.25-1a4.56,4.56,0,0,0-1.49-1.57C129.05,110.27,128.65,110.21,128.67,110.11Z"/><path class="cls-2" d="M131.83,104.36a3.1,3.1,0,0,0,.74,0,1.23,1.23,0,0,0,.59-.3.94.94,0,0,0,.3-.56c0-.27-.08-.44,0-.47s.42.34.54.48a9.52,9.52,0,0,1,.6.86,10.06,10.06,0,0,0,1.21,1.45l.17.16c.45.4.7.49.67.54a1.9,1.9,0,0,1-1.53-.45c-.24-.21-.19-.29-.75-1.12-.44-.65-.57-.75-.72-.76-.33,0-.42.38-.91.46A1,1,0,0,1,131.83,104.36Z"/><path class="cls-2" d="M119.79,109c-1.76-.24-1.77-.68-2.06-1.23a2.75,2.75,0,0,0-1.68-1.71,2.7,2.7,0,0,1,.69,2.22c-.08.72.45.64-.59,1.44a2.19,2.19,0,0,1,1.7-.57c.89.12,1.19.79,1.8,1.87-.1-1.2-1-1.38-.67-1.75A1,1,0,0,1,119.79,109Z"/><path class="cls-2" d="M113.65,82.1c1.76-.25,1.77-.69,2.06-1.24a2.74,2.74,0,0,1,1.68-1.7,2.69,2.69,0,0,0-.69,2.22c.08.71-.45.63.59,1.44a2.18,2.18,0,0,0-1.7-.58c-.89.13-1.19.8-1.8,1.87.1-1.2.95-1.37.67-1.74A1,1,0,0,0,113.65,82.1Z"/><path class="cls-2" d="M120.23,85.25c.08.13-.57.52-.48.86s.6.25.66.53-.35.37-.51.87a1.1,1.1,0,0,0,.07.94c.27.39.89.52,1.11.31l0-.08c.21-.34,0-.71.1-.83a.37.37,0,0,1,.47.15c.13.26-.36.51-.36,1.06,0,.39.24.68.14.75s-.2,0-.28-.1a1.09,1.09,0,0,1-.25-.49c-.15-.33-.64-.39-1.09-.44a3.16,3.16,0,0,0-1.94.41c-.44.22-.5.35-.52.44s.08.3.4.86.27.56.26.57-.44-.59-1-.71c-.78-.17-1.35.64-1.7.39s-.14-.95-.08-.95,0,.4.23.54,1-.28,1.1-.39a3.19,3.19,0,0,0,.83-1c.43-.83.2-1.21.56-1.47s1.18.16,1.46-.19c.15-.18,0-.33,0-1,.05-.35.11-.79.41-1C120,85.21,120.19,85.19,120.23,85.25Z"/><path class="cls-2" d="M117.39,72.66a2.33,2.33,0,0,0,2.36-.54,2.8,2.8,0,0,1,.44-.62,1.16,1.16,0,0,1,.49-.36c.48-.14.82.33,1.08.17s0-.45.25-.77.94-.4.94-.47-.78.21-1.35-.13-.63-1.32-1.13-1.38c-.26,0-.4.22-.54.14-.34-.18.3-1.73.14-1.8s-1.11,1.17-.75,1.8c.21.37.74.28.91.69s0,.65-.24,1A4.67,4.67,0,0,1,118.5,72C117.76,72.5,117.36,72.56,117.39,72.66Z"/><path class="cls-2" d="M120.54,78.41a3.19,3.19,0,0,1,.75,0,1.21,1.21,0,0,1,.58.3.94.94,0,0,1,.3.56c0,.27-.07.44,0,.47s.42-.34.54-.48a9.39,9.39,0,0,0,.59-.86A10.89,10.89,0,0,1,124.5,77l.17-.16c.45-.4.7-.49.68-.54a1.92,1.92,0,0,0-1.54.45c-.23.21-.19.29-.74,1.12-.44.65-.57.75-.72.76-.33,0-.43-.38-.92-.46A1,1,0,0,0,120.54,78.41Z"/><path class="cls-2" d="M124.94,100.67c1.75.25,1.76.69,2.06,1.24a2.71,2.71,0,0,0,1.68,1.7,2.72,2.72,0,0,1-.7-2.22c.08-.71-.44-.63.6-1.44a2.19,2.19,0,0,1-1.71.58c-.88-.13-1.18-.8-1.8-1.87.11,1.2,1,1.37.68,1.74A1,1,0,0,1,124.94,100.67Z"/><path class="cls-2" d="M101.52,98.4c.08.13-.57.52-.48.86s.6.25.66.53-.35.37-.51.87a1.1,1.1,0,0,0,.07.94c.27.39.89.52,1.11.31l0-.08c.21-.34,0-.71.09-.83a.38.38,0,0,1,.48.15c.13.26-.36.51-.36,1.06,0,.39.24.68.14.75s-.2,0-.28-.1a1.09,1.09,0,0,1-.25-.49c-.15-.33-.64-.39-1.09-.44a3.24,3.24,0,0,0-1.94.4c-.44.23-.5.36-.52.45s.08.3.4.86.27.55.26.57-.44-.59-1-.71c-.78-.17-1.35.64-1.7.39s-.14-1-.08-1,0,.4.23.54,1-.28,1.1-.39a3,3,0,0,0,.82-1c.44-.83.21-1.21.57-1.47s1.18.16,1.46-.19c.15-.18,0-.33,0-1,0-.35.11-.79.41-1C101.3,98.36,101.48,98.34,101.52,98.4Z"/><path class="cls-2" d="M109.1,72c.08.13-.57.53-.48.87s.6.25.66.53-.35.36-.51.87a1.1,1.1,0,0,0,.07.94c.27.38.89.51,1.11.3l0-.07c.21-.35,0-.71.1-.83s.39,0,.48.15-.37.5-.37,1c0,.4.24.69.14.76s-.2,0-.28-.11a1,1,0,0,1-.25-.49c-.15-.32-.64-.38-1.09-.43a3.24,3.24,0,0,0-1.94.4c-.44.22-.5.36-.52.45s.08.29.4.86.27.55.26.56-.44-.58-1.05-.71c-.78-.16-1.35.65-1.7.4s-.14-1-.08-1,0,.4.23.55,1-.28,1.1-.39a3.19,3.19,0,0,0,.83-1c.43-.84.2-1.21.56-1.47s1.18.16,1.46-.19c.15-.18,0-.34,0-1,0-.35.11-.79.41-1C108.88,72,109.06,71.94,109.1,72Z"/><path class="cls-2" d="M107.62,144.31l-.21,0-.31-.11a2.56,2.56,0,0,1-.64-.48c-4.17-3.93-8.41-7.84-12.61-11.62-2.49-2.24-5-4.47-7.5-6.69-.83-.74-1.59-1.44-2.34-2.14-1.19-1.1-2.08-2-2.8-2.79-.92-1-1.54-1.62-1.93-1.68a.25.25,0,0,1-.21-.25.26.26,0,0,1,.21-.25A3.48,3.48,0,0,0,81,117.5a2.84,2.84,0,0,0,1-1.61,2.32,2.32,0,0,0-.47-1.59c-.85-.94-3.33-1.22-4.43-.69l-.19.1a4.58,4.58,0,0,1-.85.44,5.13,5.13,0,0,1-1.65.36c-1-.08-2-1.69-3.79-4.54-.87-1.39-1.86-3-2.9-4.37a.33.33,0,0,1,0-.16A2,2,0,0,0,67.3,104a6.11,6.11,0,0,0-2.27-.77,12.74,12.74,0,0,0-1.27-.17l-.47,0a.18.18,0,0,1-.13-.06A8.12,8.12,0,0,1,62,101.81l-.58-.65-3.62-4a.26.26,0,0,1-.07-.19.29.29,0,0,1,.1-.18c1.42-1.08,3.17-1.44,5.59-2,1.32-.28,2.81-.6,4.58-1.09s3.5-1.07,4.89-1.53c3.49-1.18,5.6-1.88,8-.93.85.33,1.19.62,3.85,2.87l.23.2,7.49,6.3a.25.25,0,0,1,0,.33.25.25,0,0,1-.33.08,1.35,1.35,0,0,0-1-.09.92.92,0,0,0-.56.45c-.26.51.18,1.18.61,1.43a1.36,1.36,0,0,0,1,0l.09,0a1.52,1.52,0,0,1,.71-.08c3,.77,5.18,3.34,7.26,6.14a.26.26,0,0,1,0,.31.26.26,0,0,1-.3.07l-.29-.14c-3.69-1.66-6.48-1.23-7.24,0a2.7,2.7,0,0,0-.18,2,2.17,2.17,0,0,0,.91,1.39,7,7,0,0,0,6.54-.18,4.91,4.91,0,0,0,1.88-1.75.28.28,0,0,1,.3-.11c.12,0,12,8.39,12,10a4.25,4.25,0,0,0,2.18,3.63,1.92,1.92,0,0,0,2.24-.47.29.29,0,0,1,.2-.07c.83.08,1.82,1.31,2.7,2.4a12.74,12.74,0,0,0,.84,1,36.16,36.16,0,0,0,3.9,3.16,25.57,25.57,0,0,1,5,4.48.25.25,0,0,1,.05.19.21.21,0,0,1-.1.17,6.06,6.06,0,0,1-3,1.13,9.39,9.39,0,0,0-2.23.59l-1.52.66c-1.21.54-2.57,1.15-3.41,1.44-.51.17-2.06.79-3.57,1.39s-3.12,1.24-3.64,1.42a7.88,7.88,0,0,0-2.52,1.23,8.09,8.09,0,0,1-2.65,1.3A2.23,2.23,0,0,1,107.62,144.31ZM80,118.62a15,15,0,0,1,1.54,1.49c.71.75,1.59,1.68,2.77,2.78.75.69,1.5,1.39,2.33,2.13q3.76,3.33,7.5,6.69c4.21,3.79,8.45,7.7,12.62,11.63a2.57,2.57,0,0,0,.49.38l.25.09a1.69,1.69,0,0,0,.68-.14,7.67,7.67,0,0,0,2.52-1.23,8,8,0,0,1,2.64-1.3c.52-.18,2.1-.81,3.63-1.41s3.07-1.23,3.59-1.4c.81-.28,2.17-.89,3.37-1.42l1.52-.67a9.81,9.81,0,0,1,2.35-.62,5.74,5.74,0,0,0,2.58-.89,25.15,25.15,0,0,0-4.74-4.18,38.31,38.31,0,0,1-3.94-3.21,11.25,11.25,0,0,1-.89-1c-.66-.82-1.63-2-2.26-2.2a2.41,2.41,0,0,1-2.69.48,4.73,4.73,0,0,1-2.48-4.11c-.1-1-10-8.5-11.5-9.41a5.62,5.62,0,0,1-2,1.74,7.46,7.46,0,0,1-7,.18,2.78,2.78,0,0,1-1.14-1.7A3.21,3.21,0,0,1,92,109c.85-1.39,3.59-2,7.29-.47-1.85-2.41-3.79-4.53-6.42-5.19a1.39,1.39,0,0,0-.45.09l-.1,0a1.75,1.75,0,0,1-1.4-.06,1.73,1.73,0,0,1-.81-2.09,1.48,1.48,0,0,1,.86-.7,1.69,1.69,0,0,1,.39-.08l-6.75-5.68-.23-.19c-2.61-2.21-2.94-2.49-3.71-2.79-2.25-.89-4.29-.2-7.67.93-1.4.47-3,1-4.92,1.54-1.78.5-3.28.81-4.61,1.09a14.3,14.3,0,0,0-5.16,1.71l3.43,3.74c.26.28.43.49.58.66a8.24,8.24,0,0,0,1.07,1.06l.39,0a11.82,11.82,0,0,1,1.32.18,6.5,6.5,0,0,1,2.49.87,2.42,2.42,0,0,1,.61,1.74c1,1.39,2,3,2.87,4.34,1.35,2.18,2.64,4.24,3.37,4.3a5.11,5.11,0,0,0,1.46-.32,5.24,5.24,0,0,0,.77-.4,2.36,2.36,0,0,1,.24-.14c1.28-.6,4-.31,5,.82a2.77,2.77,0,0,1,.58,2,3.34,3.34,0,0,1-1.18,1.89A4,4,0,0,1,80,118.62Z"/><path class="cls-2" d="M100.34,109.25c-.35.84-1,1.86-.31,2.63.07.12.56.3.3.61s-.83.48-.8.13c-.49-.26-.59-1.22-.49-1.84a5.24,5.24,0,0,1,.63-1.87c.1-.18.2-.39.33-.23s.38.42.34.57Z"/><path class="cls-2" d="M92.5,101c-.12.3-.44.6-.41.86s.21.5.43.9c.09.15-.15.31-.32.3-.47-.11-.57-.69-.56-1.19a2.42,2.42,0,0,1,.43-1.1.25.25,0,0,1,.34-.08.24.24,0,0,1,.09.31Z"/><path class="cls-2" d="M84.49,128.85c.43,4.12-3.78,5.46-5.82,1.94-1.31-2.35-1-7.35,2.74-6.52,2,.45,3,2.67,3.08,4.58Zm-.3,0c0-1.86-.86-4-2.81-4.51-2.25-.65-3.37,1.59-3.12,3.54.09,1.8.93,3.91,2.83,4.34,2.1.54,3.21-1.53,3.1-3.37Z"/><path class="cls-2" d="M85.53,138a.57.57,0,0,1,.43-.36,5.48,5.48,0,0,1,3.55.32.2.2,0,0,1-.08.4,7.19,7.19,0,0,0-3.23,0c-.2.13-.8,0-.67-.35Z"/><path class="cls-2" d="M89.2,139.84c.08-2.34.43-5.44-1.61-7.05-1.08-.67-2.29.41-2.49,1.5a5.23,5.23,0,0,0,1,3.4.35.35,0,0,1-.14.49l-.11,0-.25,0a1.28,1.28,0,0,1-.3,0l.33-.1a.37.37,0,0,1-.26.1,41.37,41.37,0,0,1-7.79-1.6c-3.78-1.11-7.43-2.55-11.31-3.17-2.57-.46-5.44-.2-7.71-1.8s-2.57-4.77-2.74-7.36a44.55,44.55,0,0,1,.46-11.82c.59-3.86,1.32-7.75.76-11.64-.27-1.29-.61-2.95.5-4a.37.37,0,0,1,.51,0c.88,1,2.85,3.28,3.7,4.22A12.55,12.55,0,0,1,63,102.41c.74,1.54.2,3.11.9,4.53.93,2.2,1.88,1.59,2.56-.31.26-.47.36-1.2,1-1.36a.29.29,0,0,1,.18.07c.88,1,1.55,2.22,2.34,3.3a27.45,27.45,0,0,0,4.79,5.58.35.35,0,0,1,0,.54c-2.44,1.94-1.14,5.31,1.29,6.61,1.22.72,2,.11,2-1.24.07-.72,0-2,1.15-1.91a2.46,2.46,0,0,1,1.17.76,81.55,81.55,0,0,0,5.89,5.87c5.09,4.59,12.57,11.39,17.6,16l2.63,2.41a2.09,2.09,0,0,0,.84.59l-.09.49c-6-1.2-12.34-2-18-4.51Zm.64-.38A86.94,86.94,0,0,0,98.36,142c3,.7,6,1.26,9,1.84a.24.24,0,0,1,.21.29c-.29.83-2-1.12-2.27-1.33L93.08,131.51c-3.84-3.37-9.68-8.42-13.18-12a2.16,2.16,0,0,0-.79-.53h.1l-.31,0,.1,0c-.36.09-.45.84-.54,1.21-.4,2.65-2.54,1.69-3.88.35a4.39,4.39,0,0,1-.34-6.32l0,.56,0,0c-2.72-2.47-5-6.38-6.78-9.07-.69.81-.78,2-1.6,2.73-1.07.8-1.91-.49-2.22-1.33-.7-1.36-.3-3.2-1-4.46a12.83,12.83,0,0,0-1.28-1.27L60.09,100l-2.56-2.67h.55a2.38,2.38,0,0,0-.71,1.55c.83,4.52.16,9.22-.57,13.71a44,44,0,0,0-.4,11.69c.17,2.45.37,5.35,2.51,6.89s5,1.21,7.45,1.65a33.48,33.48,0,0,1,3.88.85c4.68,1.37,11.29,3.66,15.12,3.83a.37.37,0,0,0-.25.11,2.7,2.7,0,0,1,.56-.14l-.25.53a6.24,6.24,0,0,1-.76-3.84c.27-1.35,1.81-2.54,3.14-1.74s1.54,2.19,1.83,3.39a11.69,11.69,0,0,1,.21,3.63Z"/><path class="cls-2" d="M88.12,108.73c-2.15.84-7.73-.11-8.45-2.63-.35-1.71,1.57-2.62,2.89-2.64a7.77,7.77,0,0,1,5.06,1.43,3.16,3.16,0,0,1,1.61,2.19.21.21,0,0,1-.21.22.22.22,0,0,1-.22-.2c-.06-.71-.82-1.28-1.5-1.71a7.53,7.53,0,0,0-4.67-1.2c-1.13.09-2.42.55-2.22,1.79.31,1.06,1.72,1.53,2.72,1.93a9.3,9.3,0,0,0,4.91.58c.15,0,.23.19.08.24Z"/><path class="cls-2" d="M97,119.33c0,1-1,1.55-1.83,1.65-2.22.36-4.89-.13-6.28-2a2,2,0,0,1,1.55-2.68,6,6,0,0,1,4.9,1c.72.52,1.52,1,1.66,2Zm-.46,0c-.13-.65-.93-1.17-1.5-1.52a6.48,6.48,0,0,0-4.43-.9c-1.09.14-1.91,1.41-1,2.27a5.92,5.92,0,0,0,5.51,1.57c.76-.18,1.5-.69,1.42-1.42Z"/><path class="cls-2" d="M77.86,132c.18,2.14-2.36,3.57-3.27,1.13-.39-1.12,0-3.93,1.59-3.57A3,3,0,0,1,77.86,132Zm-.76,0a2.61,2.61,0,0,0-1-2.16c-.88-.36-1.27,1.11-1.25,1.78a2.06,2.06,0,0,0,1.18,1.8c.55,0,1.09-.84,1.1-1.42Z"/><path class="cls-2" d="M67.26,120.21c.1,1.36.27,3.59-1.82,3.31-2.28-.08-2.19-3.82-1.92-5.44a1.45,1.45,0,0,1,1.7-1.06c1.4.38,2,1.9,2,3.19Zm-.43,0c.11-1.26-1-3.46-2.45-2.67-.65.59-.34,1.62-.25,2.44a5.22,5.22,0,0,0,.8,2.38c.19.22.68.18,1,.17a.41.41,0,0,0,.21,0c.57-.45.66-1.51.72-2.27Z"/><path class="cls-2" d="M112.45,129c.17,5.06-11.34,2.49-12.16-.9a2.32,2.32,0,0,1,2.29-2.83c2.68-.41,9.27.54,9.87,3.73Zm-.53,0c-.36-2.77-11.54-5.13-11-1,.68,2.85,11.75,5.92,11,1Z"/><path class="cls-2" d="M108.22,135.32c-.07,1-1.08,1.46-1.88,1.78-2.38,1-6.34-.27-7-2.95,0-2.31,3.08-2.49,4.7-1.93a10.57,10.57,0,0,1,3.49,2,1.79,1.79,0,0,1,.71,1.13Zm-.13,0a1.65,1.65,0,0,0-.7-1,8.63,8.63,0,0,0-4.73-1.73c-1,0-2.7.34-2.6,1.52.75,2.19,4,3.3,6.2,2.72.76-.2,1.75-.63,1.83-1.51Z"/><path class="cls-2" d="M97.48,125.37c.06.68-.65,1-1.22,1.08-1.7.36-4.22-.15-4.56-2.16,0-.79.81-1.28,1.5-1.28,1.67-.19,3.9.52,4.28,2.36Zm-.13,0c-.37-1.71-2.58-2.2-4.07-1.8-.44.1-.88.23-.83.73.24,1.53,2.37,2.17,3.78,2,.54,0,1.15-.27,1.12-.9Z"/><path class="cls-2" d="M82.39,102.06c-1.85.3-5.19-2.32-2.21-3.42A5.11,5.11,0,0,1,82,98.53c.08,0,.08.12,0,.13-.79.1-1.8.22-2.24.9-.35,1.26,1.47,2.26,2.59,2.37.08,0,.08.12,0,.13Z"/><path class="cls-3" d="M84.9,101.36a1,1,0,0,0,.44-.71,1,1,0,0,0-.72-1"/><path class="cls-2" d="M84.83,101.25a2,2,0,0,0,.14-.77,1.31,1.31,0,0,0-.41-.69.17.17,0,0,1,0-.26c.73-.3,1.51.92,1,1.57-.12.22-.8.61-.74.15Z"/></g></svg>